<svg width="50" height="50" viewBox="0 0 16 16" fill="none" xmlns="http://www.w3.org/2000/svg">
  <path d="M5.085 0.915L0.915 5.085C0.33 5.67 0 6.465 0 7.295V14.75C0 15.44 0.56 16 1.25 16H8.705C9.535 16 10.3275 15.67 10.915 15.085L15.085 10.915C15.67 10.33 16 9.535 16 8.705V1.25C16 0.56 15.44 0 14.75 0H7.295C6.465 0 5.6725 0.33 5.085 0.915Z" fill="url(#paint0_linear_17303_133086)"/>
  <path d="M12 4H2V14H12V4Z" fill="black"/>
  <path d="M7.5 11.75H3.25V12.75H7.5V11.75Z" fill="white"/>
  <defs>
    <linearGradient id="paint0_linear_17303_133086" x1="0.2125" y1="15.68" x2="15.655" y2="0.4525" gradientUnits="userSpaceOnUse">
      <stop stop-color="#FF9419"/>
      <stop offset="0.43" stop-color="#FF021D"/>
      <stop offset="0.99" stop-color="#E600FF"/>
    </linearGradient>
  </defs>
</svg>